<?xml version="1.0" standalone="no"?>
<!DOCTYPE svg PUBLIC "-//W3C//DTD SVG 20010904//EN"
 "http://www.w3.org/TR/2001/REC-SVG-20010904/DTD/svg10.dtd">
<svg version="1.0" xmlns="http://www.w3.org/2000/svg"
 width="256.000000pt" height="256.000000pt" viewBox="0 0 256.000000 256.000000"
 preserveAspectRatio="xMidYMid meet">

<g transform="translate(0.000000,256.000000) scale(0.100000,-0.100000)"
fill="#000000" stroke="none">
<path d="M1470 2344 c-14 -2 -52 -9 -85 -15 -175 -31 -357 -145 -469 -293
-107 -141 -155 -271 -163 -444 -9 -181 29 -335 116 -470 l39 -60 -343 -343
c-267 -267 -345 -351 -350 -376 -15 -71 57 -143 128 -128 25 5 109 83 376 350
l343 343 60 -39 c224 -144 538 -159 783 -37 209 104 365 302 422 536 24 98 21
274 -6 377 -73 281 -297 505 -574 575 -77 19 -229 33 -277 24z m224 -230 c199
-51 369 -221 420 -420 20 -78 21 -212 1 -289 -28 -109 -72 -184 -159 -270
-155 -154 -346 -207 -550 -155 -365 93 -547 486 -385 826 24 50 56 91 114 150
85 86 160 130 265 158 74 20 218 20 294 0z"/>
<path d="M1474 1886 l-34 -34 0 -101 0 -101 -99 0 c-83 0 -102 -3 -123 -20
-60 -47 -57 -133 6 -171 25 -15 50 -19 124 -19 l92 0 0 -90 c0 -108 15 -145
67 -166 43 -19 93 -5 123 33 17 22 20 41 20 124 l0 99 101 0 101 0 34 34 c38
38 44 77 19 125 -20 39 -35 44 -150 51 l-100 5 -5 100 c-7 115 -12 130 -51
150 -48 25 -87 19 -125 -19z"/>
</g>
</svg>
